<svg id="Layer_1" data-name="Layer 1" xmlns="http://www.w3.org/2000/svg" viewBox="0 0 210 150"><defs><style>.cls-1{fill:#ebedef;}</style></defs><title>01-icon</title><path class="cls-1" d="M32,78c0-30.46,12.84-65.91,47.32-65.91,34.1,0,47.13,35.44,47.13,65.91,0,30.27-13,66.1-47.13,66.1C44.84,144.09,32,108.26,32,78Zm82.77,0c0-26.44-8.62-55.94-35.44-55.94C52.31,22,43.5,51.55,43.5,78c0,26.25,8.81,56.13,35.83,56.13C106,134.13,114.77,104.24,114.77,78Z"/><path class="cls-1" d="M162.34,141.79V28.94l-20.5,21.84-6.71-7.09L163.3,14h10V141.79Z"/></svg>