<svg id="Layer_1" data-name="Layer 1" xmlns="http://www.w3.org/2000/svg" viewBox="0 0 210 150"><defs><style>.cls-1{fill:#ebedef;}</style></defs><title>02-icon</title><path class="cls-1" d="M11.26,78c0-30.46,12.84-65.91,47.32-65.91,34.1,0,47.13,35.44,47.13,65.91,0,30.27-13,66.1-47.13,66.1C24.09,144.09,11.26,108.26,11.26,78ZM94,78C94,51.55,85.4,22,58.58,22c-27,0-35.83,29.5-35.83,55.94,0,26.25,8.81,56.13,35.83,56.13C85.21,134.13,94,104.24,94,78Z"/><path class="cls-1" d="M113.7,141.79v-9c43.49-35.06,72.61-60,72.61-84.68,0-18.39-15.13-26.06-29.12-26.06-15.9,0-28.16,6.9-35.06,16.67l-7.47-6.9c9-12.26,24.52-19.73,42.53-19.73,18.78,0,40.23,10.73,40.23,36,0,28.16-29.7,53.84-66.67,83.72H198v10Z"/></svg>