<svg id="Layer_1" data-name="Layer 1" xmlns="http://www.w3.org/2000/svg" viewBox="0 0 210 150"><defs><style>.cls-1{fill:#ebedef;}</style></defs><title>03-icon</title><path class="cls-1" d="M11,78c0-30.46,12.84-65.91,47.32-65.91,34.1,0,47.13,35.44,47.13,65.91,0,30.27-13,66.1-47.13,66.1C23.84,144.09,11,108.26,11,78Zm82.77,0C93.77,51.55,85.15,22,58.32,22,31.31,22,22.5,51.55,22.5,78c0,26.25,8.81,56.13,35.83,56.13C85,134.13,93.77,104.24,93.77,78Z"/><path class="cls-1" d="M112.77,122.82l7.47-6.51c7.09,10.15,19.54,17.82,35.83,17.82,19.73,0,32.19-10.35,32.19-27.21,0-18.39-15.14-25.86-34.29-25.86-5.17,0-10,0-11.88.19V70.9c1.92.19,6.71.19,11.88.19,16.86,0,32.38-7.28,32.38-24.33,0-15.9-14.18-24.71-30.65-24.71-14.56,0-24.91,5.75-34.29,16.29l-6.9-6.9a53.09,53.09,0,0,1,41.77-19.35c22.22,0,41.19,12.07,41.19,33.72,0,19.54-16.48,28-27.4,29.89,11.11,1.15,29.31,10.73,29.31,31.8s-15.9,36.59-43.11,36.59C135.38,144.09,120.05,134.32,112.77,122.82Z"/></svg>