<svg id="Layer_1" data-name="Layer 1" xmlns="http://www.w3.org/2000/svg" viewBox="0 0 210 150"><defs><style>.cls-1{fill:#ebedef;}</style></defs><title>04-icon</title><path class="cls-1" d="M5.94,78c0-30.46,12.84-65.91,47.32-65.91,34.1,0,47.13,35.44,47.13,65.91,0,30.27-13,66.1-47.13,66.1C18.78,144.09,5.94,108.26,5.94,78Zm82.77,0C88.71,51.55,80.09,22,53.26,22c-27,0-35.83,29.5-35.83,55.94,0,26.25,8.81,56.13,35.83,56.13C79.9,134.13,88.71,104.24,88.71,78Z"/><path class="cls-1" d="M172.38,141.79V106.92H111.83V97.15L168.54,14H183.3V97h18.78v10H183.3v34.87Zm0-116.87L123.14,97h49.24Z"/></svg>