<svg id="Layer_1" data-name="Layer 1" xmlns="http://www.w3.org/2000/svg" viewBox="0 0 210 150"><defs><style>.cls-1{fill:#ebedef;}</style></defs><title>05-icon</title><path class="cls-1" d="M5.94,78c0-30.46,12.84-65.91,47.32-65.91,34.1,0,47.13,35.44,47.13,65.91,0,30.27-13,66.1-47.13,66.1C18.78,144.09,5.94,108.26,5.94,78Zm82.77,0C88.71,51.55,80.09,22,53.26,22c-27,0-35.83,29.5-35.83,55.94,0,26.25,8.81,56.13,35.83,56.13C79.9,134.13,88.71,104.24,88.71,78Z"/><path class="cls-1" d="M116.39,123.21l7.28-7.28c8.24,11.69,19.35,18.2,35.83,18.2,18.39,0,32-13.41,32-30.85,0-19.35-13.41-31.23-31.8-31.23-11.69,0-21.65,3.83-31,12.45l-8.24-3.45V14h73.76V24H131.34V74A44.53,44.53,0,0,1,161.8,62.09c21.46,0,40.81,14.18,40.81,40.81,0,25.48-19.54,41.19-43.11,41.19C138.23,144.09,125.21,135.85,116.39,123.21Z"/></svg>