<svg id="Layer_1" data-name="Layer 1" xmlns="http://www.w3.org/2000/svg" viewBox="0 0 210 150"><defs><style>.cls-1{fill:#ebedef;}</style></defs><title>06-icon</title><path class="cls-1" d="M4.52,78c0-30.46,12.84-65.91,47.32-65.91C85.95,12.08,99,47.53,99,78c0,30.27-13,66.1-47.13,66.1C17.36,144.09,4.52,108.26,4.52,78Zm82.77,0C87.29,51.55,78.67,22,51.84,22,24.83,22,16,51.55,16,78c0,26.25,8.81,56.13,35.83,56.13C78.47,134.13,87.29,104.24,87.29,78Z"/><path class="cls-1" d="M115.14,78c0-32.76,13.6-65.91,48.86-65.91,16.67,0,26.82,6.71,34.49,16.29l-6.51,8C185.84,28,178,22,164,22,136.41,22,126.26,51,126.26,78.18c0,1.92,0,4,.19,5.94,5.36-8.81,20.12-21.27,37.36-21.27,23,0,41.19,13.22,41.19,40.42,0,20.88-15.71,40.81-42.92,40.81C127.6,144.09,115.14,112.29,115.14,78Zm78.74,25.48c0-20.88-13.6-30.85-32-30.85-14,0-27.59,9-34.87,21.84,1.53,17.43,10.73,39.66,34.68,39.66C183.54,134.13,193.89,117.27,193.89,103.47Z"/></svg>