<svg id="Layer_1" data-name="Layer 1" xmlns="http://www.w3.org/2000/svg" width="77.01" height="90" viewBox="0 0 77.01 90"><defs><style>.cls-1{fill:#ff3e2e;}.cls-2{fill:#ffae2c;}.cls-3{fill:#fb8f01;}.cls-4{fill:#fff;}</style></defs><title>color_icon_6</title><path class="cls-1" d="M72.61,80H23.39A4.66,4.66,0,0,1,19,75.12V4.88A4.66,4.66,0,0,1,23.39,0H72.61A4.66,4.66,0,0,1,77,4.88V75.12A4.66,4.66,0,0,1,72.61,80Z"/><path class="cls-2" d="M61,90H5a5,5,0,0,1-5-5V22.55L14.67,8H61a5,5,0,0,1,5,5V85A5,5,0,0,1,61,90Z"/><path class="cls-3" d="M0,23H10a5,5,0,0,0,5-5V8"/><rect class="cls-4" x="29" y="23" width="26" height="16" rx="3" ry="3"/><rect class="cls-4" x="10" y="47" width="46" height="4"/><rect class="cls-4" x="10" y="57" width="46" height="4"/><rect class="cls-4" x="10" y="67" width="46" height="4"/></svg>