<svg id="Layer_1" data-name="Layer 1" xmlns="http://www.w3.org/2000/svg" width="86.5" height="87.59" viewBox="0 0 86.5 87.59"><defs><style>.cls-1{fill:#41c5ff;}.cls-2{fill:#0da7fc;}.cls-3{fill:#fff;}.cls-4{fill:#cfd2d7;}.cls-5{fill:#b2b8bf;}</style></defs><title>color_icon_5</title><rect class="cls-1" y="79.59" width="86" height="8" rx="2" ry="2"/><path class="cls-2" d="M85.38,28.6,1.21,28c.21-.66-.19-.4.21-.66L43.57.06a.37.37,0,0,1,.41,0L85.91,27.63C86.31,27.88,85.83,28.6,85.38,28.6Z" transform="translate(0 0)"/><circle class="cls-3" cx="43.7" cy="13.57" r="4.68"/><rect class="cls-4" x="70.5" y="34" width="6" height="46"/><rect class="cls-4" x="60.5" y="34" width="6" height="46"/><rect class="cls-4" x="50.5" y="34" width="6" height="46"/><rect class="cls-4" x="40.5" y="34" width="6" height="46"/><rect class="cls-4" x="30.5" y="34" width="6" height="46"/><rect class="cls-4" x="20.5" y="34" width="6" height="46"/><rect class="cls-4" x="10.5" y="34" width="6" height="46"/><rect class="cls-1" x="0.5" y="27" width="86" height="7" rx="2" ry="2"/><rect class="cls-5" x="10.5" y="34" width="6" height="3"/><rect class="cls-5" x="20.5" y="34" width="6" height="3"/><rect class="cls-5" x="30.5" y="34" width="6" height="3"/><rect class="cls-5" x="40.5" y="34" width="6" height="3"/><rect class="cls-5" x="50.5" y="34" width="6" height="3"/><rect class="cls-5" x="60.5" y="34" width="6" height="3"/><rect class="cls-5" x="70.5" y="34" width="6" height="3"/></svg>