<svg id="Layer_1" data-name="Layer 1" xmlns="http://www.w3.org/2000/svg" xmlns:xlink="http://www.w3.org/1999/xlink" width="94" height="104.03" viewBox="0 0 94 104.03"><defs><style>.cls-1{fill:none;}.cls-2{fill:#cfd2d7;}.cls-3{fill:#ebedef;}.cls-4{clip-path:url(#clip-path);}.cls-5{fill:#ffcb48;}.cls-6{fill:#ffae2c;}.cls-7{fill:#ff3e2e;}.cls-8{fill:#fff;}.cls-9{fill:#fb8f01;}.cls-10{fill:#dd1500;}</style><clipPath id="clip-path" transform="translate(0 0.03)"><path class="cls-1" d="M89.83,19.1a3.14,3.14,0,0,0-2.3-2.58L48.36.11a3.25,3.25,0,0,0-1.71,0L7.48,16.52a3.14,3.14,0,0,0-2.3,2.58C5,20.7-.23,58.53,13.07,77.35s32.86,25.1,33.69,25.3a3.26,3.26,0,0,0,1.5,0c.83-.2,20.41-6.5,33.69-25.3S90.06,20.7,89.83,19.1Z"/></clipPath></defs><title>color_icon_4</title><path class="cls-2" d="M89.83,19.1a3.14,3.14,0,0,0-2.3-2.58L48.36.11a3.25,3.25,0,0,0-1.71,0L7.48,16.52a3.14,3.14,0,0,0-2.3,2.58C5,20.7-.23,58.53,13.07,77.35s32.86,25.1,33.69,25.3a3.26,3.26,0,0,0,1.5,0c.83-.2,20.41-6.5,33.69-25.3C95,59,90.06,20.7,89.83,19.1Z" transform="translate(0 0.03)"/><path class="cls-3" d="M89.83,19.1a3.14,3.14,0,0,0-2.3-2.58L48.36.11A3.24,3.24,0,0,0,47,0V102.67a2.73,2.73,0,0,0,1.25,0c.83-.2,20.41-6.5,33.69-25.3S90.06,20.7,89.83,19.1Z" transform="translate(0 0.03)"/><g class="cls-4"><rect class="cls-5" y="94.03" width="94" height="10"/><path class="cls-6" d="M10,93V36a2,2,0,0,1,2-2H82.92a2,2,0,0,1,2,2V93" transform="translate(0 0.03)"/><polyline class="cls-7" points="40 94.03 40 70.03 54 70.03 54 94.03"/><rect class="cls-8" x="18" y="42.03" width="14" height="14"/><rect class="cls-8" x="40" y="42.03" width="14" height="14"/><rect class="cls-8" x="18" y="66.03" width="14" height="14"/><rect class="cls-8" x="62" y="42.03" width="14" height="14"/><rect class="cls-8" x="62" y="66.03" width="14" height="14"/><rect class="cls-9" x="7" y="91.03" width="33" height="3"/><rect class="cls-9" x="54" y="91.03" width="33" height="3"/><rect class="cls-10" x="40" y="91.03" width="14" height="3"/></g></svg>