<svg id="Layer_1" data-name="Layer 1" xmlns="http://www.w3.org/2000/svg" width="94" height="73" viewBox="0 0 94 73"><defs><style>.cls-1{fill:#ffcb48;}.cls-2{fill:#ffae2c;}.cls-3{fill:#ff3e2e;}.cls-4{fill:#fff;}.cls-5{fill:#fb8f01;}.cls-6{fill:#dd1500;}</style></defs><title>color_icon_3</title><rect class="cls-1" y="63" width="94" height="10" rx="2" ry="2"/><path class="cls-2" d="M7,63V2A2,2,0,0,1,9,0H85a2,2,0,0,1,2,2V63"/><polyline class="cls-3" points="40 63 40 39 54 39 54 63"/><rect class="cls-4" x="18" y="11" width="14" height="14" rx="2" ry="2"/><rect class="cls-4" x="40" y="11" width="14" height="14" rx="2" ry="2"/><rect class="cls-4" x="18" y="35" width="14" height="14" rx="2" ry="2"/><rect class="cls-4" x="62" y="11" width="14" height="14" rx="2" ry="2"/><rect class="cls-4" x="62" y="35" width="14" height="14" rx="2" ry="2"/><rect class="cls-5" x="7" y="60" width="33" height="3"/><rect class="cls-5" x="54" y="60" width="33" height="3"/><rect class="cls-6" x="40" y="60" width="14" height="3"/></svg>