<svg id="Layer_1" data-name="Layer 1" xmlns="http://www.w3.org/2000/svg" width="72" height="91.47" viewBox="0 0 72 91.47"><defs><style>.cls-1{fill:#20d330;}.cls-2{fill:#13b72a;}.cls-3{fill:#009907;}.cls-4{fill:#ff3c21;}.cls-5{fill:#fff;}</style></defs><title>color_icon_2</title><polygon class="cls-1" points="18 40.47 0 46.47 0 91.47 18 85.47 18 40.47"/><polygon class="cls-2" points="18 40.47 36 46.47 36 91.47 18 85.47 18 40.47"/><polygon class="cls-1" points="54 40.47 36 46.47 36 91.47 54 85.47 54 40.47"/><polygon class="cls-2" points="54 40.47 72 46.47 72 91.47 54 85.47 54 40.47"/><polygon class="cls-3" points="36.04 67.47 54 51.47 72 56.47 72 46.47 58 41.47 46 50.98 36.04 67.47"/><path class="cls-4" d="M62.5,26.47A26.45,26.45,0,0,1,50,49c-4.06,2.48-14,18.49-14,18.49S26.1,51.49,22,49A26.47,26.47,0,1,1,62.5,26.47Z" transform="translate(0 -0.02)"/><circle class="cls-5" cx="35.91" cy="26.32" r="11.52"/></svg>