<svg width="30" height="30" viewBox="0 0 30 30" xmlns="http://www.w3.org/2000/svg"><title>DE206FEB-028F-45C9-A78A-0EDEA16AF9B1</title><path d="M1.65 0C.74 0 0 .74 0 1.65v26.685c0 .438.174.857.483 1.167.31.31.73.483 1.167.483h14.37V18.36h-3.915v-4.5h3.915V10.5c-.164-1.604.39-3.198 1.513-4.355 1.122-1.158 2.7-1.76 4.307-1.645 1.167-.004 2.334.056 3.495.18v4.05h-2.4c-.62-.14-1.27.044-1.725.49-.455.445-.653 1.09-.525 1.715v2.895h4.5l-.585 4.5h-3.9V30h7.65c.438 0 .857-.174 1.167-.483.31-.31.483-.73.483-1.167V1.65c0-.438-.174-.857-.483-1.167-.31-.31-.73-.483-1.167-.483H1.65z" fill="#40474F" fill-rule="evenodd" opacity=".3"/></svg>