<svg id="Layer_1" data-name="Layer 1" xmlns="http://www.w3.org/2000/svg" width="52.2" height="55.04" viewBox="0 0 52.2 55.04"><defs><style>.cls-1{fill:none;stroke:#fff;stroke-linecap:round;stroke-linejoin:round;stroke-width:2px;}</style></defs><title>line_icon_5</title><rect class="cls-1" x="4" y="17.04" width="44" height="3.98"/><rect class="cls-1" x="1" y="50.06" width="50" height="3.98"/><path class="cls-1" d="M51,17H1.45c-.26,0-.35-.41-.12-.56L26.08,1a.22.22,0,0,1,.24,0L51.06,16.44C51.3,16.59,51.21,17,51,17Z" transform="translate(0 0.04)"/><circle class="cls-1" cx="26.16" cy="9.53" r="2.64"/><line class="cls-1" x1="44.1" y1="24.04" x2="44" y2="47.04"/><line class="cls-1" x1="38.1" y1="24.04" x2="38" y2="47.04"/><line class="cls-1" x1="32.1" y1="24.04" x2="32" y2="47.04"/><line class="cls-1" x1="26.1" y1="24.04" x2="26.1" y2="47.04"/><line class="cls-1" x1="20.1" y1="24.04" x2="20.1" y2="47.04"/><line class="cls-1" x1="14.1" y1="24.04" x2="14.1" y2="47.04"/><line class="cls-1" x1="8" y1="24.04" x2="8" y2="47.04"/></svg>