<svg id="Layer_1" data-name="Layer 1" xmlns="http://www.w3.org/2000/svg" width="52.09" height="61.15" viewBox="0 0 52.09 61.15"><defs><style>.cls-1,.cls-2{fill:none;stroke:#fff;stroke-width:2px;}.cls-1{stroke-miterlimit:10;}.cls-2{stroke-linecap:round;stroke-linejoin:round;}</style></defs><title>line_icon_4</title><path class="cls-1" d="M50.41,12a1.81,1.81,0,0,0-1.32-1.48L26.54,1.07a1.87,1.87,0,0,0-1,0L3,10.51A1.81,1.81,0,0,0,1.68,12c-.13.92-3.11,22.7,4.54,33.53A40.6,40.6,0,0,0,25.62,60.1a1.88,1.88,0,0,0,.86,0,40.6,40.6,0,0,0,19.4-14.57C53.53,34.69,50.54,12.92,50.41,12Z" transform="translate(0 0)"/><polyline class="cls-2" points="6 37.14 6 19.16 46 19.16 46 37.14"/><polyline class="cls-2" points="23 53.14 23 41.14 29 41.14 29 53.14"/><rect class="cls-2" x="12" y="41.14" width="6" height="6"/><rect class="cls-2" x="12" y="28.16" width="6" height="6"/><rect class="cls-2" x="34" y="41.14" width="6" height="6"/><rect class="cls-2" x="34" y="28.16" width="6" height="6"/><rect class="cls-2" x="23" y="28.16" width="6" height="6"/></svg>