<svg id="Layer_1" data-name="Layer 1" xmlns="http://www.w3.org/2000/svg" width="43" height="52" viewBox="0 0 43 52"><defs><style>.cls-1{fill:none;stroke:#fff;stroke-linecap:round;stroke-linejoin:round;stroke-width:2px;}</style></defs><title>line_icon_6</title><path class="cls-1" d="M37,50a1,1,0,0,1-1,1H2a1,1,0,0,1-1-1V15a2.78,2.78,0,0,1,.71-1.71L8.29,6.73A2.79,2.79,0,0,1,10,6H36a1,1,0,0,1,1,1Z"/><polyline class="cls-1" points="2 15 10 15 10 7"/><polyline class="cls-1" points="14 1 42 1 42 47"/><rect class="cls-1" x="17" y="14" width="14" height="9"/><line class="cls-1" x1="7" y1="28" x2="31" y2="28"/><line class="cls-1" x1="7" y1="33" x2="31" y2="33"/><line class="cls-1" x1="7" y1="38" x2="31" y2="38"/></svg>