<svg id="Layer_1" data-name="Layer 1" xmlns="http://www.w3.org/2000/svg" width="51.87" height="59.38" viewBox="0 0 51.87 59.38"><defs><style>.cls-1,.cls-2{fill:none;stroke:#fff;stroke-width:2px;}.cls-1{stroke-miterlimit:10;}.cls-2{stroke-linecap:round;stroke-linejoin:round;}</style></defs><title>line_icon_2</title><path class="cls-1" d="M42.24 17.08a16.07 16.07 0 0 1-7.61 13.67C32.18 32.27 26.16 42 26.16 42s-6-9.73-8.47-11.25a16.08 16.08 0 1 1 24.55-13.67z"/><circle class="cls-1" cx="26.08" cy="17" r="7"/><path class="cls-1" d="M40.94 24.21a18.27 18.27 0 0 1-5.32 4.92C32.82 30.84 26.16 42 26.16 42s-7-11.15-9.86-12.86A18.27 18.27 0 0 1 11 24.2L1 27.46V58l12.47-4.07L25.93 58l12.47-4.07L50.87 58V27.46z"/><path class="cls-2" d="M13.08 32v18M39.08 32v18M26.08 47v7"/></svg>