<svg id="Layer_1" data-name="Layer 1" xmlns="http://www.w3.org/2000/svg" width="45.85" height="61.94" viewBox="0 0 45.85 61.94"><defs><style>.cls-1,.cls-2,.cls-3{fill:none;stroke:#fff;stroke-width:2px;}.cls-1,.cls-2{stroke-linecap:round;}.cls-1{stroke-linejoin:round;}.cls-2,.cls-3{stroke-miterlimit:10;}</style></defs><title>line_icon_1</title><path class="cls-1" d="M15.68 43.54s3.83 3 7 3 7-3 7-3"/><path class="cls-2" d="M44.22 45.46c-2.89-2.52-5.87-3.52-9.88-4.9-.08 0-6.54-2.48-6.54-4.16 0-6 8.52-2 9.78-16.2a33.19 33.19 0 0 0 .13-4.84 5.13 5.13 0 0 1-.09 1.16c1.07-6.77-1.67-13.7-2.1-15C29 5.6 17.38-2.27 14.24 6.46a.49.49 0 0 0-.43-.07c-4.23.49-5.36 4.23-4.58 9.82a27.79 27.79 0 0 0 .39 4.89c2.2 13.78 9 9.25 9 15.27 0 1.86-7.52 4.31-7.73 4.19a27.11 27.11 0 0 0-9.29 5.51l-.6.61v9.26c5.17 3 12.79 5 21.3 5 9.22 0 17.41-2.26 22.55-5.75v-9.12z"/><path class="cls-3" d="M9.68 16.01s6-6 8.78-4.91c4.39 1.8 13-.6 14.29-1.35.93 2.77 5.32 6.58 5.32 6.58"/></svg>