<?xml version="1.0" encoding="UTF-8" standalone="no"?>
<svg width="16px" height="18px" viewBox="0 0 16 18" version="1.1" xmlns="http://www.w3.org/2000/svg" xmlns:xlink="http://www.w3.org/1999/xlink">
    <!-- Generator: sketchtool 39.1 (31720) - http://www.bohemiancoding.com/sketch -->
    <title>2F1170B1-4398-4086-B2D5-8B873807CDC8</title>
    <desc>Created with sketchtool.</desc>
    <defs></defs>
    <g id="Login" stroke="none" stroke-width="1" fill="none" fill-rule="evenodd">
        <g transform="translate(-492.000000, -545.000000)" id="lock-copy">
            <g transform="translate(491.000000, 545.000000)">
                <rect id="Rectangle-56-Copy-2" x="0" y="0" width="18" height="18"></rect>
                <g id="Page-1" opacity="0.6" transform="translate(2.000000, 1.000000)" stroke="#3F4D60" stroke-width="2" stroke-linecap="round">
                    <path d="M13,16 L1,16 C0.448,16 0,15.552 0,15 L0,9 C0,8.448 0.448,8 1,8 L13,8 C13.552,8 14,8.448 14,9 L14,15 C14,15.552 13.552,16 13,16 L13,16 Z" id="Stroke-1"></path>
                    <path d="M3,7 L3,4 C3,1.791 4.791,0 7,0 C9.209,0 11,1.791 11,4 L11,7" id="Stroke-3"></path>
                </g>
            </g>
        </g>
    </g>
</svg>