<svg id="Layer_1" data-name="Layer 1" xmlns="http://www.w3.org/2000/svg" width="159.15" height="49.08" viewBox="0 0 159.15 49.08"><defs><style>.cls-1{fill:url(#linear-gradient);}.cls-2{fill:#ff8f1c;}.cls-3{fill:url(#linear-gradient-2);}.cls-4{fill:#171c8f;}</style><linearGradient id="linear-gradient" x1="26.24" y1="31.11" x2="26.24" y2="-3.18" gradientTransform="matrix(1 0 0 -1 0 52)" gradientUnits="userSpaceOnUse"><stop offset="0" stop-color="#ff0029"/><stop offset="1" stop-color="#ab00ff"/></linearGradient><linearGradient id="linear-gradient-2" x1="19.68" y1="50.17" x2="52.67" y2="14.32" gradientTransform="matrix(1 0 0 -1 0 52)" gradientUnits="userSpaceOnUse"><stop offset="0" stop-color="#ff9100"/><stop offset=".52" stop-color="#ff0029"/><stop offset="1" stop-color="#ab00ff"/></linearGradient></defs><title>Lykke_logo</title><path class="cls-1" d="M11.96 49.08L26.25 34.8l14.28 14.28v-8.55L26.25 26.24 11.96 40.53v8.55z"/><path class="cls-2" d="M0 20.2h20.2l6.05 6.04H6.05L0 20.2z"/><path class="cls-3" d="M52.49 20.2h-20.2V6.05L26.25 0v26.24h20.19l6.05-6.04z"/><path class="cls-4" d="M64.55 8.44h6v20.47h8l2.18 5.91H64.55zM89.08 28l3.86-11.74h6l-9.37 25.4h-5.99l2.53-6.84-6.84-18.58h5.95zM106.52 34.82h-5.62V8.44h5.61v16.27l6.06-8.47H119L112.76 25l7.24 9.82h-6.61l-6.87-9.26zM127.37 34.82h-5.61V8.44h5.61v16.27l6.06-8.47h6.47L133.61 25l7.25 9.77h-6.62l-6.87-9.26zM140.56 25.53a9.23 9.23 0 0 1 8.86-9.59h.73c4.72 0 9 3.09 9 9a12.46 12.46 0 0 1-.11 1.64H146a3.9 3.9 0 0 0 4 3.42 4.26 4.26 0 0 0 4-2.34l4.46 3a9.77 9.77 0 0 1-8.4 4.46 9.47 9.47 0 0 1-9.5-9.44v-.15zm13-2.27V23c-.37-1.82-2-2.6-3.72-2.6a3.67 3.67 0 0 0-3.84 2.86z"/></svg>