<svg id="Layer_1" data-name="Layer 1" xmlns="http://www.w3.org/2000/svg" width="20" height="16.24" viewBox="0 0 20 16.24"><defs><style>.cls-1{fill:#cfd2d7;}</style></defs><title>tw</title><path class="cls-1" d="M20 1.92a8.21 8.21 0 0 1-2.36.65A4.12 4.12 0 0 0 19.45.3a8.23 8.23 0 0 1-2.61 1 4.11 4.11 0 0 0-7 3.74A11.65 11.65 0 0 1 1.39.74a4.11 4.11 0 0 0 1.27 5.48A4.09 4.09 0 0 1 .8 5.71v.05a4.11 4.11 0 0 0 3.29 4 4.1 4.1 0 0 1-1.85.07 4.11 4.11 0 0 0 3.83 2.85A8.24 8.24 0 0 1 1 14.46a8.33 8.33 0 0 1-1-.06 11.62 11.62 0 0 0 6.29 1.84A11.6 11.6 0 0 0 18 4.75v-.71a8.34 8.34 0 0 0 2-2.12"/></svg>