<svg width="34" height="28" viewBox="0 0 34 28" xmlns="http://www.w3.org/2000/svg"><title>991677E3-BD22-43FC-9C64-3E1D1971157C</title><path d="M29.998 4.352c1.45-.872 2.534-2.24 3.052-3.85-1.367.814-2.864 1.388-4.426 1.696C26.468-.098 23.04-.662 20.26.823c-2.778 1.484-4.216 4.648-3.506 7.717-5.597-.28-10.812-2.924-14.346-7.274-1.846 3.18-.904 7.248 2.154 9.292-1.106-.032-2.187-.33-3.155-.865v.085c.022 3.296 2.35 6.126 5.58 6.783-1.024.28-2.096.32-3.138.12.91 2.832 3.52 4.773 6.494 4.833-2.465 1.938-5.512 2.99-8.648 2.984-.567 0-1.133-.034-1.696-.1 6.094 3.933 13.853 4.22 20.22.742 6.366-3.478 10.32-10.16 10.304-17.414v-.898c1.36-.978 2.538-2.19 3.476-3.578-1.27.565-2.62.937-4.002 1.102z" fill="#40474F" fill-rule="evenodd" opacity=".3"/></svg>