<svg id="Layer_1" data-name="Layer 1" xmlns="http://www.w3.org/2000/svg" width="22" height="15.46" viewBox="0 0 22 15.46"><defs><style>.cls-1{fill:#cfd2d7;}</style></defs><title>youtube</title><path class="cls-1" d="M21.78 3.33a4.77 4.77 0 0 0-.87-2.18 3.15 3.15 0 0 0-2.2-.93C15.63-.01 11-.01 11-.01s-4.61 0-7.69.23a3.15 3.15 0 0 0-2.2.93 4.77 4.77 0 0 0-.89 2.18A33.27 33.27 0 0 0 0 6.89v1.67a33.27 33.27 0 0 0 .22 3.56 4.77 4.77 0 0 0 .87 2.18 3.73 3.73 0 0 0 2.43.94c1.76.17 7.48.22 7.48.22s4.62 0 7.7-.23a3.15 3.15 0 0 0 2.2-.93 4.77 4.77 0 0 0 .87-2.18A33.25 33.25 0 0 0 22 8.56V6.89a33.25 33.25 0 0 0-.22-3.56M9 10.58V4.4l5.94 3.1z"/></svg>