<svg width="36" height="26" viewBox="0 0 36 26" xmlns="http://www.w3.org/2000/svg"><title>682F8464-7808-442E-A927-2E32D6962819</title><path d="M34.2 1.883C33.244.923 31.95.375 30.597.36 25.555 0 17.992 0 17.992 0S6.662.27 5.386.36C4.032.375 2.74.922 1.784 1.883 1.02 2.935.53 4.163.36 5.453.136 7.385.016 9.332 0 11.28v2.734c.016 1.947.136 3.893.36 5.828.17 1.29.66 2.517 1.424 3.57 1.098.973 2.51 1.52 3.98 1.538 2.88.278 12.244.36 12.244.36s7.564 0 12.606-.377c1.354-.015 2.647-.562 3.602-1.522.765-1.05 1.254-2.278 1.424-3.568.224-1.935.344-3.88.36-5.828V11.28c-.02-1.948-.147-3.894-.377-5.828-.17-1.29-.66-2.517-1.424-3.57zM14.7 17.32V7.204l9.726 5.075L14.7 17.32z" fill="#40474F" fill-rule="evenodd" opacity=".3"/></svg>