<svg width="70" height="64" viewBox="0 0 70 64" xmlns="http://www.w3.org/2000/svg"><title>6ABBDA8B-609E-4E59-9CFA-CDD00C38E770</title><defs><linearGradient x1="50%" y1="0%" x2="50%" y2="100%" id="a"><stop stop-color="#41C5FF" offset="0%"/><stop stop-color="#0DA7FC" offset="100%"/></linearGradient></defs><g fill="none" fill-rule="evenodd"><g transform="translate(1 1)"><path d="M2.574 47A33.898 33.898 0 0 1 0 34C0 15.222 15.222 0 34 0s34 15.222 34 34c0 4.604-.915 8.995-2.574 13" stroke="#333" stroke-width="2" stroke-linecap="round"/><ellipse fill="url(#a)" cx="34" cy="34" rx="29" ry="29"/></g><g transform="scale(1 -1) rotate(-45 -27.078 -55.084)" stroke="#FFF" stroke-width="2" stroke-linecap="round"><circle stroke-linejoin="round" cx="3" cy="3" r="3"/><path d="M3 7v10"/></g><path d="M35 11v4m10.422-1.619l-1.753 3.595m10.086 3.049l-3.109 2.517m7.751 7.113l-3.897.9m3.897 9.79l-3.897-.9m-42.897.9l3.897-.9m-3.897-9.79l3.897.9m.745-10.53l3.109 2.517m5.224-9.16l1.753 3.594" stroke="#FFF" stroke-width="2" stroke-linecap="round"/></g></svg>