<svg width="71" height="71" viewBox="0 0 71 71" xmlns="http://www.w3.org/2000/svg"><title>AAB333A9-AA9C-43CD-A205-A1D262ECD3CB</title><defs><linearGradient x1="50%" y1="0%" x2="50%" y2="100%" id="a"><stop stop-color="#FFCB48" offset="0%"/><stop stop-color="#FFAE2C" offset="100%"/></linearGradient></defs><g fill="none" fill-rule="evenodd"><g transform="translate(-8 -7)"><path d="M28.069 72.332a34.126 34.126 0 0 0 6.843 2.646c18.138 4.86 36.781-5.904 41.641-24.042 4.86-18.138-5.903-36.781-24.041-41.641-18.138-4.86-36.782 5.904-41.642 24.041-2.81 10.492-.394 21.153 5.653 29.217L12.807 76.49l15.262-4.157z" stroke="#333" stroke-width="2" stroke-linecap="round" stroke-linejoin="round"/><ellipse fill="url(#a)" transform="rotate(15 43.712 42.136)" cx="43.712" cy="42.136" rx="29" ry="29"/><g stroke="#FFF" stroke-width="2" stroke-linecap="round"><path d="M34.25 52.854v-8.427a8.41 8.41 0 0 1 8.43-8.414l10.538.017"/><path d="M49.2 30l4.8 6-4.8 6"/></g></g><path d="M36 12a1 1 0 1 1 0-2 1 1 0 0 1 0 2zm5.953.784a1 1 0 1 1 .517-1.932 1 1 0 0 1-.517 1.932zM47.5 15.08a1 1 0 1 1 1-1.732 1 1 0 0 1-1 1.732zm4.763 3.656a1 1 0 1 1 1.415-1.415 1 1 0 0 1-1.415 1.415zM55.92 23.5a1 1 0 1 1 1.732-1 1 1 0 0 1-1.732 1zm2.297 5.547a1 1 0 1 1 1.932-.517 1 1 0 0 1-1.932.517zM59 35a1 1 0 1 1 2 0 1 1 0 0 1-2 0zm-.784 5.953a1 1 0 1 1 1.932.517 1 1 0 0 1-1.932-.517zM55.92 46.5a1 1 0 1 1 1.732 1 1 1 0 0 1-1.732-1zm-3.656 4.763a1 1 0 1 1 1.415 1.415 1 1 0 0 1-1.415-1.415zM47.5 54.92a1 1 0 1 1 1 1.732 1 1 0 0 1-1-1.732zm-5.547 2.297a1 1 0 1 1 .517 1.932 1 1 0 0 1-.517-1.932zM36 58a1 1 0 1 1 0 2 1 1 0 0 1 0-2zm-5.953-.784a1 1 0 1 1-.517 1.932 1 1 0 0 1 .517-1.932zM24.5 54.92a1 1 0 1 1-1 1.732 1 1 0 0 1 1-1.732zm-4.763-3.656a1 1 0 1 1-1.415 1.415 1 1 0 0 1 1.415-1.415zM16.08 46.5a1 1 0 1 1-1.732 1 1 1 0 0 1 1.732-1zm-2.297-5.547a1 1 0 1 1-1.932.517 1 1 0 0 1 1.932-.517zM13 35a1 1 0 1 1-2 0 1 1 0 0 1 2 0zm.784-5.953a1 1 0 1 1-1.932-.517 1 1 0 0 1 1.932.517zM16.08 23.5a1 1 0 1 1-1.732-1 1 1 0 0 1 1.732 1zm3.656-4.763a1 1 0 1 1-1.415-1.415 1 1 0 0 1 1.415 1.415zM24.5 15.08a1 1 0 1 1-1-1.732 1 1 0 0 1 1 1.732zm5.547-2.297a1 1 0 1 1-.517-1.932 1 1 0 0 1 .517 1.932z" fill="#FFF"/></g></svg>