<svg xmlns="http://www.w3.org/2000/svg" width="22" height="19" viewBox="0 0 22 19">
    <path fill="#CFD2D7" fill-rule="evenodd" d="M10.828 6h.188c.843.031 1.546.328 2.109.89.563.563.86 1.266.89 2.11v.14L10.829 6zm-4.265.797A5.348 5.348 0 0 0 6 9c.031 1.406.523 2.586 1.477 3.54.953.952 2.132 1.444 3.539 1.476a5.348 5.348 0 0 0 2.203-.563l-1.547-1.547a2.379 2.379 0 0 1-.656.094c-.844-.031-1.547-.328-2.11-.89-.562-.563-.86-1.266-.89-2.11 0-.219.03-.437.093-.656L6.563 6.797zM1.03 1.266L2.297 0l17.719 17.719-1.266 1.265-3.375-3.328c-1.344.563-2.797.844-4.36.844-2.53-.031-4.773-.734-6.726-2.11A12.017 12.017 0 0 1 0 9c.813-2.031 2.062-3.703 3.75-5.016l-.469-.421-2.25-2.297zm9.985 2.718a5.768 5.768 0 0 0-1.829.375L7.031 2.203a11.253 11.253 0 0 1 3.985-.703c2.53.031 4.773.734 6.726 2.11A12.017 12.017 0 0 1 22.032 9a12.19 12.19 0 0 1-3.47 4.734l-2.906-2.906A4.45 4.45 0 0 0 16.031 9c-.031-1.406-.523-2.586-1.476-3.54-.953-.952-2.133-1.444-3.54-1.476z"/>
</svg>
