<?xml version="1.0" encoding="utf-8"?>
<!-- Generator: Adobe Illustrator 26.0.1, SVG Export Plug-In . SVG Version: 6.00 Build 0)  -->
<svg version="1.2" baseProfile="tiny" id="Layer_1" xmlns="http://www.w3.org/2000/svg" xmlns:xlink="http://www.w3.org/1999/xlink"
	 x="0px" y="0px" viewBox="0 0 198 181" overflow="visible" xml:space="preserve">
<desc>Created with Sketch.</desc>
<g>
	<path fill="#2F2E42" d="M104.3,0c6.2,0,11.2,4.4,11.2,10.6v64.1h68.4c6.2,0,11.2,4.4,11.2,10.6c0,5.6-5,10.6-11.2,10.6h-78.4
		c-0.6,0-0.6,0-1.2,0c-3.1,0-5.6-1.2-7.5-3.1s-3.1-4.4-3.1-7.5V10.6C93.7,4.4,98.7,0,104.3,0z"/>
	<path fill="#F27065" d="M71.9,79.6c6.2,0,10.6,5,10.6,10.6c0,5.6-5,10.6-10.6,10.6H13.5c-6.2,0-10.6-5-10.6-10.6
		c0-5.6,5-10.6,10.6-10.6L71.9,79.6z"/>
	<path fill="#F27065" d="M106.2,107.6L106.2,107.6c1.2,0.6,2.5,1.2,3.1,1.9l55.4,52.9c3.1,3.1,4.4,7.5,2.5,11.8
		c-1.9,3.7-5.6,6.8-10,6.8l0,0c-3.1,0-5.6-1.2-7.5-3.1l-48.5-46l-47.9,45.4c-2.5,2.5-6.8,3.7-10.6,2.5c-3.7-1.2-6.8-3.7-7.5-7.5
		c-1.2-3.7,0-7.5,3.1-10l55.4-52.9C96.8,105.7,101.8,105.1,106.2,107.6z"/>
</g>
</svg>
