<?xml version="1.0" encoding="UTF-8"?>
<svg width="198px" height="181px" viewBox="0 0 198 181" version="1.1" xmlns="http://www.w3.org/2000/svg" xmlns:xlink="http://www.w3.org/1999/xlink">
    <!-- Generator: Sketch 49.3 (51167) - http://www.bohemiancoding.com/sketch -->
    <title>Group 4</title>
    <desc>Created with Sketch.</desc>
    <defs>
        <linearGradient x1="49.9714984%" y1="-23.4740816%" x2="49.9714984%" y2="126.856531%" id="linearGradient-1">
            <stop stop-color="#FF0029" offset="0%"></stop>
            <stop stop-color="#AB00FF" offset="100%"></stop>
        </linearGradient>
        <linearGradient x1="-25.0492908%" y1="6.97322695%" x2="100.631028%" y2="143.529965%" id="linearGradient-2">
            <stop stop-color="#FF9100" offset="0%"></stop>
            <stop stop-color="#FF0029" offset="51.53%"></stop>
            <stop stop-color="#AB00FF" offset="100%"></stop>
        </linearGradient>
    </defs>
    <g id="Page-1" stroke="none" stroke-width="1" fill="none" fill-rule="evenodd">
        <g id="Details/Captcha/01a_iPad_landscape" transform="translate(-923.000000, -291.000000)">
            <g id="Group-4" transform="translate(912.000000, 272.000000)">
                <rect id="Rectangle" fill-opacity="0" fill="#FFFFFF" x="0" y="0" width="224" height="224"></rect>
                <g id="Group-3" transform="translate(11.000000, 19.000000)">
                    <g id="Group-2">
                        <g id="Group" transform="translate(0.371775, 0.407692)">
                            <polygon id="Shape" fill="url(#linearGradient-1)" points="44.9441546 180.385714 98.5314159 128.393851 152.118677 180.385714 152.118677 149.292541 98.5314159 97.1307692 44.9441546 149.292541 44.9441546 149.292541 44.9441546 149.292541"></polygon>
                            <polygon id="Shape" fill="#FF8F1C" points="5.32907052e-15 76.317033 74.4900937 76.317033 96.8027946 97.1307692 22.3127009 97.1307692 22.3127009 97.1307692 22.3127009 97.1307692"></polygon>
                            <polygon id="Shape" fill="url(#linearGradient-2)" points="197.062832 74.7424714 122.572738 74.7424714 122.572738 22.3882979 100.260037 5.32907052e-15 100.260037 97.1307692 174.750131 97.1307692 174.750131 97.1307692 174.750131 97.1307692"></polygon>
                        </g>
                    </g>
                </g>
            </g>
        </g>
    </g>
</svg>