<svg width="213" height="65" viewBox="0 0 213 65" fill="none" xmlns="http://www.w3.org/2000/svg">
<path d="M31.8181 6.49187L28.8072 0L30.4981 0.0425654L32.6101 4.93114L34.9655 0.154783L36.6564 0.197349L33.3235 6.52799L33.2115 11.0115L31.706 10.9741L31.8181 6.49316V6.49187Z" fill="white"/>
<path d="M40.0949 7.79334L39.3531 0.674599L40.9384 1.26536L41.3505 6.57701L45.1264 2.8248L46.7117 3.41556L41.5063 8.31961L39.9468 12.5233L38.5353 11.9983L40.0949 7.79592V7.79334Z" fill="white"/>
<path d="M47.496 11.7184L49.0993 4.74282L50.4077 5.81598L49.0774 10.9741L53.8642 8.6511L55.1726 9.72426L48.6601 12.6716L45.8231 16.1413L44.6576 15.1855L47.4934 11.7171L47.496 11.7184Z" fill="white"/>
<path d="M53.2319 17.831L57 11.7493L57.8925 13.1888L54.9704 17.6401L60.2492 16.9913L61.1417 18.4308L54.0278 19.1132L50.2235 21.4788L49.429 20.1979L53.2319 17.8336V17.831Z" fill="white"/>
<path d="M56.6832 25.4812L62.2221 20.959L62.5982 22.6113L58.3883 25.8669L63.5911 26.9749L63.9671 28.6272L57.0194 26.9529L52.6537 27.9487L52.3188 26.4783L56.6832 25.4825V25.4812Z" fill="white"/>
<path d="M57.4636 33.8331L64.1629 31.3423L63.9864 33.0269L58.9524 34.7476L63.5202 37.4769L63.3438 39.1615L57.3065 35.3319L52.8533 34.865L53.0104 33.3649L57.4624 33.8318L57.4636 33.8331Z" fill="white"/>
<path d="M55.5075 41.9914L62.6523 41.8212L61.9375 43.3574L56.6188 43.3432L60.0509 47.414L59.3361 48.9502L54.8738 43.36L50.8159 41.4652L51.4521 40.0979L55.5087 41.9914H55.5075Z" fill="white"/>
<path d="M51.0104 49.0663L57.8255 51.2217L56.6536 52.4432L51.626 50.7058L53.5577 55.6691L52.3858 56.8906L49.9698 50.155L46.7426 47.0477L47.7857 45.9604L51.013 49.0676L51.0104 49.0663Z" fill="white"/>
<path d="M44.4709 54.3083L50.2235 58.5546L48.7194 59.3311L44.5224 56.0587L44.7478 61.3806L43.2436 62.1571L43.1315 55.001L41.0801 51.0153L42.4181 50.3239L44.4683 54.3083H44.4709Z" fill="white"/>
<path d="M36.5804 57.1409L40.6383 63.033L38.9642 63.2767L36.0601 58.8138L34.5418 63.9191L32.8676 64.1629L35.0891 57.3601L34.4465 52.9217L35.9365 52.705L36.5791 57.1409H36.5804Z" fill="white"/>
<path d="M28.2083 57.2582L30.1529 64.1461L28.4904 63.8352L27.1781 58.6719L24.0976 63.0149L22.435 62.704L26.7273 56.9822L27.5477 52.5735L29.0287 52.8495L28.2083 57.257V57.2582Z" fill="white"/>
<path d="M20.2419 54.6514L19.8401 61.7973L18.3694 60.9614L18.8086 55.6524L14.4828 58.7532L13.0121 57.9174L18.9322 53.9098L21.1421 50.0092L22.4518 50.7535L20.2432 54.6527L20.2419 54.6514Z" fill="white"/>
<path d="M13.5607 49.599L10.8756 56.2328L9.75263 54.9649L11.8801 50.0827L6.78679 51.6177L5.66381 50.3497L12.5588 48.4717L15.9071 45.496L16.9065 46.6246L13.5581 49.6003L13.5607 49.599Z" fill="white"/>
<path d="M8.86404 42.6531L4.17768 48.0564L3.52604 46.4931L7.11905 42.5641L1.80423 42.3629L1.1526 40.7996L8.28323 41.2601L12.4145 39.5317L12.9954 40.9234L8.86533 42.6519L8.86404 42.6531Z" fill="white"/>
<path d="M6.67346 34.5425L0.471341 38.0986L0.369603 36.4076L5.05468 33.8847L0.101737 31.9408L0 30.2498L6.58074 33.0385L11.0495 32.7702L11.1396 34.2755L6.67218 34.5438L6.67346 34.5425Z" fill="white"/>
<path d="M7.22336 26.1829L0.212487 27.5747L0.654208 25.9391L5.89691 25.0427L1.82097 21.6194L2.26269 19.9838L7.61357 24.7266L11.9355 25.8978L11.5427 27.3541L7.22207 26.1829H7.22336Z" fill="white"/>
<path d="M10.4558 18.4386L3.37537 17.4686L4.32449 16.0665L9.57363 16.9281L6.83187 12.3633L7.78099 10.9612L11.2993 17.1913L15.0056 19.7078L14.1608 20.9564L10.4558 18.4399V18.4386Z" fill="white"/>
<path d="M16.0166 12.166L9.62771 8.95809L10.9786 7.93781L15.6689 10.4505L14.5459 5.24329L15.8968 4.223L17.2181 11.2566L19.9148 14.836L18.712 15.744L16.0166 12.1647V12.166Z" fill="white"/>
<path d="M23.3018 8.03197L18.2999 2.92024L19.9084 2.39398L23.5297 6.29581L24.1556 1.0048L25.7641 0.478537L24.7338 7.56117L26.1234 11.8242L24.6913 12.2924L23.303 8.03068L23.3018 8.03197Z" fill="white"/>
<path d="M31.9005 16.1284L30.028 12.086L31.0815 12.1131L32.395 15.1572L33.8619 12.1827L34.9153 12.2098L32.8393 16.1504L32.7685 18.9416L31.831 18.9184L31.9018 16.1284H31.9005Z" fill="white"/>
<path d="M37.0466 16.9346L36.5817 12.5026L37.5695 12.869L37.8283 16.1749L40.1773 13.8376L41.1651 14.204L37.9262 17.2584L36.9565 19.8755L36.0769 19.5491L37.0453 16.932L37.0466 16.9346Z" fill="white"/>
<path d="M41.6531 19.375L42.6473 15.032L43.4625 15.7002L42.637 18.912L45.6157 17.4634L46.4309 18.1316L42.3782 19.9696L40.6139 22.1314L39.8875 21.5368L41.6506 19.3763L41.6531 19.375Z" fill="white"/>
<path d="M45.2204 23.1672L47.5604 19.3776L48.1167 20.2728L46.3009 23.046L49.5874 22.6371L50.1437 23.5322L45.7162 23.9631L43.3505 25.4399L42.8547 24.6428L45.2204 23.1672Z" fill="white"/>
<path d="M47.3749 27.9229L50.8185 25.102L51.0542 26.13L48.4361 28.1616L51.6762 28.8452L51.9119 29.8732L47.5848 28.8374L44.8688 29.4617L44.6589 28.5472L47.3749 27.9229Z" fill="white"/>
<path d="M47.8707 33.1133L52.0381 31.5539L51.9299 32.6038L48.798 33.6822L51.6453 35.3757L51.5384 36.4244L47.7754 34.0485L45.0028 33.7634L45.0981 32.8296L47.8694 33.1146L47.8707 33.1133Z" fill="white"/>
<path d="M46.6666 38.1902L51.1147 38.0716L50.673 39.0286H47.362L49.5062 41.5568L49.0645 42.5138L46.2764 39.0415L43.7471 37.869L44.1412 37.0165L46.6705 38.1876L46.6666 38.1902Z" fill="white"/>
<path d="M43.8823 42.599L48.1296 43.9275L47.402 44.6898L44.2687 43.618L45.4805 46.7046L44.7529 47.4669L43.2359 43.2774L41.2204 41.3491L41.8682 40.6706L43.8823 42.599Z" fill="white"/>
<path d="M39.8296 45.8688L43.42 48.5001L42.4851 48.9864L39.8644 46.9587L40.0163 50.2724L39.0814 50.7586L38.9964 46.3035L37.7111 43.8269L38.5431 43.3935L39.8283 45.8701L39.8296 45.8688Z" fill="white"/>
<path d="M34.9282 47.6501L37.469 51.3081L36.4272 51.4642L34.6088 48.6923L33.6764 51.8744L32.6346 52.0304L34.0009 47.7907L33.5901 45.0291L34.5173 44.8911L34.9282 47.6514V47.6501Z" fill="white"/>
<path d="M29.7228 47.7442L30.9527 52.0266L29.916 51.8383L29.0853 48.6278L27.1794 51.3404L26.1427 51.152L28.7994 47.5778L29.2978 44.8304L30.2199 44.9981L29.7215 47.7442H29.7228Z" fill="white"/>
<path d="M24.7647 46.1461L24.5368 50.5961L23.6186 50.0802L23.8761 46.773L21.1936 48.7168L20.2754 48.2008L23.9482 45.6869L25.312 43.2516L26.1298 43.7108L24.7673 46.1448L24.7647 46.1461Z" fill="white"/>
<path d="M20.5935 43.0259L18.9425 47.1638L18.2393 46.3783L19.5491 43.3316L16.3836 44.3042L15.6805 43.5186L19.9676 42.3268L22.0436 40.463L22.6694 41.1621L20.5948 43.0246L20.5935 43.0259Z" fill="white"/>
<path d="M17.6482 38.7204L14.7494 42.1011L14.3386 41.1298L16.5613 38.6713L13.2516 38.5643L12.8408 37.593L17.2825 37.8549L19.8478 36.7649L20.2136 37.6291L17.6482 38.7191V38.7204Z" fill="white"/>
<path d="M16.2574 33.6873L12.4107 35.9252L12.3412 34.8727L15.2478 33.2836L12.157 32.093L12.0875 31.0405L16.1956 32.7509L18.9773 32.5651L19.0391 33.5016L16.2587 33.686L16.2574 33.6873Z" fill="white"/>
<path d="M16.5678 28.484L12.2085 29.3779L12.4777 28.3576L15.7384 27.7785L13.1873 25.6644L13.4564 24.6441L16.8073 27.576L19.5027 28.288L19.2632 29.196L16.5691 28.484H16.5678Z" fill="white"/>
<path d="M18.5433 23.6586L14.1312 23.0847L14.7159 22.2075L17.9869 22.7209L16.26 19.891L16.8446 19.0139L19.0623 22.877L21.3803 24.4274L20.8601 25.2078L18.5433 23.6574V23.6586Z" fill="white"/>
<path d="M21.9727 19.7349L17.9805 17.7666L18.8163 17.1255L21.7474 18.6682L21.0249 15.4319L21.8607 14.7908L22.7158 19.1635L24.4106 21.3795L23.6662 21.9509L21.9727 19.7349Z" fill="white"/>
<path d="M26.4865 17.1294L23.3481 13.9705L24.3475 13.6351L26.6205 16.0472L26.9849 12.7503L27.9843 12.4149L27.3764 16.8288L28.2611 19.4756L27.3725 19.7736L26.4878 17.1268L26.4865 17.1294Z" fill="white"/>
<path d="M31.9623 22.6487L30.869 20.2611L31.4897 20.2792L32.2559 22.0773L33.1278 20.3282L33.7485 20.3463L32.5135 22.6642L32.4646 24.3087L31.9121 24.292L31.961 22.6474L31.9623 22.6487Z" fill="white"/>
<path d="M34.9938 23.1272L34.7195 20.5153L35.3016 20.7319L35.4536 22.6809L36.838 21.3034L37.4201 21.5201L35.5102 23.3207L34.9384 24.8634L34.4207 24.6712L34.9925 23.1285L34.9938 23.1272Z" fill="white"/>
<path d="M37.7072 24.5641L38.2945 22.0038L38.7749 22.3972L38.2881 24.2907L40.0446 23.4368L40.525 23.8302L38.1361 24.9137L37.0955 26.1881L36.668 25.8372L37.7072 24.5641Z" fill="white"/>
<path d="M39.8128 26.8046L41.1921 24.5706L41.5205 25.0981L40.4503 26.7324L42.3872 26.4912L42.7156 27.0187L40.1052 27.2728L38.7105 28.1422L38.4181 27.6727L39.8128 26.8033V26.8046Z" fill="white"/>
<path d="M41.08 29.6062L43.1109 27.9436L43.25 28.5498L41.7072 29.7468L43.617 30.1505L43.7561 30.7568L41.205 30.1454L39.6029 30.513L39.4793 29.9738L41.08 29.6062Z" fill="white"/>
<path d="M41.3724 32.6657L43.8308 31.7512L43.7664 32.3704L41.9197 33.0024L43.5964 34.0033L43.5321 34.6212L41.3157 33.2165L39.6815 33.045L39.7394 32.4942L41.3737 32.6657H41.3724Z" fill="white"/>
<path d="M40.6615 35.6582L43.2835 35.5899L43.0221 36.1535H41.0697L42.3331 37.6433L42.0717 38.207L40.4297 36.16L38.9384 35.4686L39.1702 34.9669L40.6602 35.6582H40.6615Z" fill="white"/>
<path d="M39.0183 38.256L41.5218 39.0402L41.0929 39.4891L39.2462 38.8558L39.9596 40.6758L39.5308 41.1247L38.6371 38.6546L37.4497 37.5169L37.8322 37.1171L39.0195 38.2547L39.0183 38.256Z" fill="white"/>
<path d="M36.6255 40.1856L38.7414 41.7386L38.1902 42.025L36.6461 40.828L36.735 42.7808L36.1838 43.0672L36.1348 40.441L35.3776 38.9796L35.8683 38.7242L36.6242 40.1844L36.6255 40.1856Z" fill="white"/>
<path d="M33.7356 41.233L35.2321 43.3909L34.6178 43.4825L33.5476 41.8483L32.9964 43.7237L32.3821 43.8153L33.1896 41.3168L32.9488 39.689L33.4961 39.6078L33.7369 41.2356L33.7356 41.233Z" fill="white"/>
<path d="M30.6668 41.2859L31.3892 43.8114L30.7788 43.6992L30.2907 41.8057L29.1665 43.4038L28.556 43.2916L30.1233 41.1866L30.4182 39.5678L30.9617 39.6671L30.6668 41.2859Z" fill="white"/>
<path d="M27.7447 40.3417L27.6082 42.9653L27.0673 42.6609L27.2206 40.7119L25.6378 41.856L25.097 41.5516L27.2631 40.0721L28.068 38.6378L28.5496 38.9087L27.7447 40.343V40.3417Z" fill="white"/>
<path d="M25.2876 38.4998L24.3127 40.9376L23.8993 40.4746L24.6733 38.6791L22.8059 39.2505L22.3925 38.7874L24.9205 38.087L26.1452 36.9894L26.5136 37.4021L25.2888 38.4985L25.2876 38.4998Z" fill="white"/>
<path d="M23.5529 35.9588L21.8414 37.949L21.5993 37.3763L22.9115 35.9291L20.9605 35.8646L20.7184 35.2919L23.3365 35.4493L24.8497 34.8082L25.0648 35.3177L23.5516 35.9588H23.5529Z" fill="white"/>
<path d="M22.7351 32.9895L20.466 34.3064L20.4261 33.686L22.1401 32.7509L20.3192 32.0479L20.2792 31.4275L22.7003 32.4387L24.3397 32.3317L24.3758 32.8837L22.7364 32.9908L22.7351 32.9895Z" fill="white"/>
<path d="M22.9218 29.9261L20.3526 30.4511L20.511 29.85L22.4338 29.5107L20.9309 28.2634L21.0893 27.6624L23.0622 29.3921L24.6501 29.8139L24.5084 30.3492L22.9205 29.9274L22.9218 29.9261Z" fill="white"/>
<path d="M24.0925 27.0781L21.4924 26.7363L21.8375 26.219L23.7654 26.5247L22.7493 24.8556L23.0944 24.3384L24.399 26.6176L25.764 27.5334L25.4563 27.9939L24.0912 27.0781H24.0925Z" fill="white"/>
<path d="M26.1143 24.7692L23.7628 23.6058L24.256 23.2278L25.983 24.1398L25.5593 22.2308L26.0525 21.8528L26.5535 24.4313L27.5502 25.7392L27.1111 26.0746L26.1143 24.7666V24.7692Z" fill="white"/>
<path d="M28.7801 23.2356L26.9334 21.3704L27.5219 21.1744L28.86 22.5984L29.0776 20.6558L29.6661 20.4598L29.3042 23.0614L29.8232 24.6222L29.2991 24.7976L28.7801 23.2369V23.2356Z" fill="white"/>
<path d="M79.7124 45.7358V18.2942H83.891V41.8021H97.3155V45.7358H79.7124Z" fill="white"/>
<path d="M108.823 45.7358V34.4429L100.522 18.2942H104.947L110.789 30.4716L116.632 18.2942H121.056L112.755 34.4429V45.7358H108.823Z" fill="white"/>
<path d="M131.126 45.7358V18.2942H135.305V32.429H135.38L146.725 18.2942H151.679L142.849 29.1165L152.605 45.7358H147.651L140.145 32.3161L135.305 37.3791V45.7358H131.126Z" fill="white"/>
<path d="M163.262 45.7358V18.2942H167.44V32.429H167.516L178.86 18.2942H183.814L174.984 29.1165L184.741 45.7358H179.787L172.281 32.3161L167.44 37.3791V45.7358H163.262Z" fill="white"/>
<path d="M195.397 45.7358V18.2942H213V22.2279H199.576V30.0575H211.034V33.7465H199.576V41.8021H213V45.7358H195.397Z" fill="white"/>
</svg>
