<svg width="116" height="45" viewBox="0 0 116 45" fill="none" xmlns="http://www.w3.org/2000/svg">
<path d="M21.8902 4.89499L19.8188 0.428711L20.9821 0.457995L22.4351 3.82124L24.0556 0.535199L25.2189 0.564483L22.9259 4.91984L22.8488 8.00444L21.8131 7.9787L21.8902 4.89588V4.89499Z" fill="#F53C59"/>
<path d="M27.5845 5.79038L27.0741 0.892821L28.1648 1.29925L28.4483 4.95356L31.046 2.37212L32.1367 2.77854L28.5555 6.15243L27.4826 9.04447L26.5115 8.6833L27.5845 5.79215V5.79038Z" fill="#F53C59"/>
<path d="M32.6763 8.49073L33.7793 3.69167L34.6795 4.42999L33.7643 7.9787L37.0575 6.38049L37.9577 7.11881L33.4772 9.14652L31.5254 11.5336L30.7235 10.8761L32.6745 8.48984L32.6763 8.49073Z" fill="#F53C59"/>
<path d="M36.6225 12.6961L39.2149 8.51203L39.8289 9.50236L37.8186 12.5648L41.4502 12.1184L42.0642 13.1088L37.17 13.5782L34.5528 15.2057L34.0061 14.3245L36.6225 12.6979V12.6961Z" fill="#F53C59"/>
<path d="M38.9969 17.9593L42.8076 14.8481L43.0663 15.9848L40.17 18.2246L43.7494 18.9869L44.0081 20.1236L39.2282 18.9718L36.2247 19.6569L35.9943 18.6452L38.9969 17.9602V17.9593Z" fill="#F53C59"/>
<path d="M39.5338 23.7052L44.1428 21.9916L44.0214 23.1506L40.558 24.3344L43.7007 26.2121L43.5793 27.371L39.4257 24.7363L36.362 24.4151L36.4701 23.3831L39.533 23.7043L39.5338 23.7052Z" fill="#F53C59"/>
<path d="M38.188 29.318L43.1035 29.2008L42.6118 30.2577L38.9526 30.248L41.3138 33.0486L40.8221 34.1055L37.7521 30.2595L34.9603 28.9559L35.398 28.0153L38.1889 29.318H38.188Z" fill="#F53C59"/>
<path d="M35.0941 34.1854L39.7828 35.6682L38.9765 36.5086L35.5176 35.3133L36.8466 38.728L36.0404 39.5683L34.3782 34.9343L32.158 32.7966L32.8756 32.0485L35.0959 34.1863L35.0941 34.1854Z" fill="#F53C59"/>
<path d="M30.5951 37.7918L34.5528 40.7131L33.518 41.2473L30.6305 38.996L30.7856 42.6574L29.7507 43.1916L29.6736 38.2683L28.2622 35.5262L29.1828 35.0506L30.5933 37.7918H30.5951Z" fill="#F53C59"/>
<path d="M25.1666 39.7405L27.9583 43.7941L26.8066 43.9618L24.8087 40.8914L23.7641 44.4038L22.6123 44.5715L24.1406 39.8913L23.6985 36.8378L24.7236 36.6887L25.1657 39.7405H25.1666Z" fill="#F53C59"/>
<path d="M19.4068 39.8212L20.7446 44.5599L19.6008 44.3461L18.698 40.7938L16.5787 43.7817L15.4349 43.5678L18.3879 39.6313L18.9522 36.5982L19.9711 36.7881L19.4068 39.8203V39.8212Z" fill="#F53C59"/>
<path d="M13.926 38.0278L13.6496 42.944L12.6378 42.369L12.9399 38.7164L9.96387 40.8497L8.95206 40.2747L13.025 37.5176L14.5453 34.8341L15.4464 35.3461L13.9269 38.0287L13.926 38.0278Z" fill="#F53C59"/>
<path d="M9.32949 34.5519L7.4822 39.1158L6.70961 38.2434L8.17327 34.8846L4.66917 35.9406L3.89659 35.0683L8.64019 33.7763L10.9438 31.729L11.6313 32.5055L9.32772 34.5527L9.32949 34.5519Z" fill="#F53C59"/>
<path d="M6.09828 29.7732L2.87416 33.4905L2.42584 32.415L4.89776 29.712L1.24127 29.5736L0.792962 28.498L5.6987 28.8148L8.54096 27.6257L8.94054 28.5832L6.09917 29.7723L6.09828 29.7732Z" fill="#F53C59"/>
<path d="M4.59121 24.1933L0.324273 26.6398L0.25428 25.4764L3.47752 23.7407L0.0699933 22.4034L0 21.24L4.52742 23.1585L7.60181 22.974L7.66383 24.0096L4.59032 24.1941L4.59121 24.1933Z" fill="#F53C59"/>
<path d="M4.96952 18.442L0.146187 19.3995L0.450082 18.2743L4.05695 17.6576L1.25279 15.3024L1.55669 14.1772L5.23798 17.4401L8.21137 18.2459L7.94114 19.2478L4.96864 18.442H4.96952Z" fill="#F53C59"/>
<path d="M7.19337 13.1141L2.32218 12.4468L2.97516 11.4822L6.58646 12.0749L4.70019 8.93443L5.35316 7.96983L7.77369 12.256L10.3236 13.9873L9.74237 14.8463L7.19337 13.115V13.1141Z" fill="#F53C59"/>
<path d="M11.0191 8.79866L6.62367 6.59169L7.55308 5.88976L10.7799 7.61841L10.0073 4.03599L10.9367 3.33405L11.8457 8.17304L13.701 10.6356L12.8735 11.2603L11.0191 8.79777V8.79866Z" fill="#F53C59"/>
<path d="M16.0311 5.95454L12.5899 2.43778L13.6965 2.07572L16.188 4.7601L16.6185 1.11999L17.7251 0.757935L17.0164 5.63064L17.9723 8.5635L16.9871 8.88562L16.032 5.95366L16.0311 5.95454Z" fill="#F53C59"/>
<path d="M21.9469 11.5247L20.6587 8.74364L21.3834 8.76228L22.2871 10.8565L23.2963 8.8102L24.021 8.82883L22.5928 11.5398L22.5441 13.4602L21.8991 13.4442L21.9478 11.5247H21.9469Z" fill="#F53C59"/>
<path d="M25.4873 12.0794L25.1675 9.03027L25.847 9.28229L26.0251 11.5567L27.6412 9.94873L28.3207 10.2007L26.0925 12.3021L25.4253 14.1026L24.8202 13.8781L25.4864 12.0776L25.4873 12.0794Z" fill="#F53C59"/>
<path d="M28.6565 13.7583L29.3405 10.7705L29.9013 11.2301L29.3334 13.4398L31.3827 12.4432L31.9436 12.9029L29.1553 14.1674L27.9415 15.6547L27.4418 15.2456L28.6548 13.7592L28.6565 13.7583Z" fill="#F53C59"/>
<path d="M31.1107 16.3673L32.7206 13.7601L33.1033 14.376L31.8541 16.2839L34.1151 16.0026L34.4979 16.6184L31.4518 16.9148L29.8243 17.9309L29.4832 17.3825L31.1107 16.3673Z" fill="#F53C59"/>
<path d="M32.593 19.6391L34.9621 17.6984L35.1243 18.4056L33.323 19.8033L35.5522 20.2736L35.7143 20.9809L32.7374 20.2683L30.8688 20.6978L30.7244 20.0686L32.593 19.6391Z" fill="#F53C59"/>
<path d="M32.9341 23.21L35.8012 22.1372L35.7267 22.8595L33.572 23.6014L35.5309 24.7665L35.4574 25.488L32.8685 23.8534L30.961 23.6573L31.0266 23.0148L32.9332 23.2109L32.9341 23.21Z" fill="#F53C59"/>
<path d="M32.1057 26.7028L35.1659 26.6212L34.862 27.2796H32.5841L34.0593 29.0189L33.7554 29.6774L31.8372 27.2885L30.0971 26.4819L30.3683 25.8953L32.1083 26.701L32.1057 26.7028Z" fill="#F53C59"/>
<path d="M30.1902 29.736L33.1122 30.65L32.6116 31.1744L30.456 30.437L31.2897 32.5605L30.7891 33.085L29.7454 30.2027L28.3588 28.8761L28.8045 28.4093L30.1902 29.736Z" fill="#F53C59"/>
<path d="M27.402 31.9855L29.8721 33.7958L29.2289 34.1304L27.4259 32.7354L27.5304 35.0151L26.8872 35.3496L26.8287 32.2846L25.9445 30.5808L26.5169 30.2826L27.4011 31.9864L27.402 31.9855Z" fill="#F53C59"/>
<path d="M24.0299 33.211L25.7779 35.7277L25.0612 35.835L23.8101 33.928L23.1687 36.1172L22.4519 36.2246L23.392 33.3077L23.1093 31.4078L23.7472 31.3129L24.0299 33.2119V33.211Z" fill="#F53C59"/>
<path d="M20.4487 33.2758L21.2948 36.222L20.5816 36.0924L20.0101 33.8837L18.6989 35.7499L17.9856 35.6203L19.8134 33.1613L20.1563 31.2712L20.7907 31.3865L20.4478 33.2758H20.4487Z" fill="#F53C59"/>
<path d="M17.0376 32.1763L16.8808 35.2378L16.2491 34.8829L16.4263 32.6076L14.5808 33.9449L13.9491 33.5899L16.4759 31.8604L17.4142 30.185L17.9768 30.5009L17.0394 32.1754L17.0376 32.1763Z" fill="#F53C59"/>
<path d="M14.1679 30.0297L13.0321 32.8765L12.5483 32.336L13.4494 30.24L11.2716 30.9091L10.7878 30.3687L13.7373 29.5487L15.1655 28.2664L15.5961 28.7474L14.1688 30.0288L14.1679 30.0297Z" fill="#F53C59"/>
<path d="M12.1416 27.0675L10.1473 29.3934L9.86464 28.7252L11.3939 27.0338L9.11686 26.9602L8.83423 26.292L11.89 26.4721L13.6549 25.7222L13.9065 26.3168L12.1416 27.0667V27.0675Z" fill="#F53C59"/>
<path d="M11.1848 23.6049L8.53831 25.1445L8.49046 24.4204L10.4901 23.3272L8.36377 22.5081L8.31592 21.784L11.1422 22.9607L13.056 22.8329L13.0985 23.4771L11.1857 23.604L11.1848 23.6049Z" fill="#F53C59"/>
<path d="M11.3983 20.0251L8.39921 20.6401L8.58438 19.9382L10.8277 19.5397L9.07256 18.0853L9.25773 17.3834L11.5631 19.4004L13.4175 19.8903L13.2527 20.515L11.3992 20.0251H11.3983Z" fill="#F53C59"/>
<path d="M12.7574 16.7054L9.72199 16.3105L10.1242 15.7071L12.3746 16.0602L11.1865 14.1133L11.5888 13.5099L13.1145 16.1676L14.7092 17.2343L14.3513 17.7711L12.7574 16.7045V16.7054Z" fill="#F53C59"/>
<path d="M15.1168 14.0059L12.3702 12.6517L12.9452 12.2107L14.9618 13.272L14.4647 11.0456L15.0397 10.6045L15.628 13.6128L16.794 15.1373L16.2819 15.5305L15.1168 14.0059Z" fill="#F53C59"/>
<path d="M18.2222 12.2134L16.063 10.0401L16.7506 9.8094L18.3143 11.4688L18.5651 9.20065L19.2526 8.96992L18.8344 12.0066L19.4431 13.8275L18.8318 14.0325L18.2231 12.2116L18.2222 12.2134Z" fill="#F53C59"/>
<path d="M21.9894 16.0105L21.2372 14.368L21.6643 14.3804L22.1914 15.6174L22.7912 14.4141L23.2183 14.4265L22.3686 16.0212L22.335 17.1526L21.9549 17.1411L21.9885 16.0097L21.9894 16.0105Z" fill="#F53C59"/>
<path d="M24.075 16.3398L23.8863 14.5428L24.2868 14.6919L24.3913 16.0327L25.3438 15.085L25.7443 15.2341L24.4303 16.4729L24.0369 17.5342L23.6808 17.402L24.0742 16.3407L24.075 16.3398Z" fill="#F53C59"/>
<path d="M25.9418 17.3283L26.3458 15.5669L26.6763 15.8375L26.3414 17.1402L27.5499 16.5528L27.8804 16.8234L26.2369 17.5688L25.521 18.4456L25.2268 18.2042L25.9418 17.3283Z" fill="#F53C59"/>
<path d="M27.3904 18.8698L28.3393 17.3328L28.5653 17.6957L27.829 18.8201L29.1615 18.6541L29.3875 19.0171L27.5916 19.1919L26.632 19.79L26.4309 19.467L27.3904 18.8689V18.8698Z" fill="#F53C59"/>
<path d="M28.2622 20.7972L29.6595 19.6533L29.7551 20.0704L28.6937 20.8939L30.0076 21.1717L30.1033 21.5887L28.3482 21.1681L27.246 21.421L27.161 21.0501L28.2622 20.7972Z" fill="#F53C59"/>
<path d="M28.4634 22.9021L30.1547 22.2729L30.1104 22.6989L28.8399 23.1337L29.9935 23.8223L29.9492 24.2474L28.4244 23.281L27.3001 23.163L27.3399 22.7841L28.4643 22.9021H28.4634Z" fill="#F53C59"/>
<path d="M27.9743 24.9609L29.7782 24.9138L29.5983 25.3016H28.2552L29.1243 26.3266L28.9445 26.7144L27.8148 25.3061L26.7888 24.8304L26.9483 24.4852L27.9734 24.9609H27.9743Z" fill="#F53C59"/>
<path d="M26.8438 26.7481L28.5661 27.2876L28.2711 27.5964L27.0006 27.1607L27.4914 28.4128L27.1964 28.7217L26.5815 27.0223L25.7646 26.2396L26.0278 25.9645L26.8447 26.7472L26.8438 26.7481Z" fill="#F53C59"/>
<path d="M25.1976 28.0756L26.6533 29.1441L26.2741 29.3411L25.2118 28.5176L25.2729 29.8611L24.8937 30.0581L24.86 28.2513L24.3391 27.2459L24.6766 27.0702L25.1967 28.0747L25.1976 28.0756Z" fill="#F53C59"/>
<path d="M23.2094 28.7962L24.239 30.2808L23.8163 30.3438L23.0801 29.2195L22.7009 30.5098L22.2783 30.5728L22.8338 28.8539L22.6681 27.734L23.0446 27.6781L23.2103 28.798L23.2094 28.7962Z" fill="#F53C59"/>
<path d="M21.0981 28.8326L21.5952 30.5701L21.1752 30.4929L20.8394 29.1902L20.0659 30.2897L19.646 30.2125L20.7242 28.7642L20.9271 27.6506L21.301 27.7189L21.0981 28.8326Z" fill="#F53C59"/>
<path d="M19.0878 28.183L18.9939 29.988L18.6218 29.7785L18.7272 28.4377L17.6383 29.2248L17.2662 29.0154L18.7564 27.9975L19.3102 27.0107L19.6416 27.1971L19.0878 28.1839V28.183Z" fill="#F53C59"/>
<path d="M17.3973 26.9158L16.7266 28.593L16.4422 28.2744L16.9747 27.0391L15.69 27.4323L15.4056 27.1137L17.1448 26.6318L17.9874 25.8767L18.2408 26.1606L17.3982 26.9149L17.3973 26.9158Z" fill="#F53C59"/>
<path d="M16.2039 25.1676L15.0264 26.5369L14.8598 26.1429L15.7627 25.1472L14.4204 25.1028L14.2538 24.7088L16.0551 24.8171L17.0961 24.3761L17.2441 24.7266L16.203 25.1676H16.2039Z" fill="#F53C59"/>
<path d="M15.6413 23.1248L14.0802 24.0309L14.0527 23.604L15.232 22.9607L13.9792 22.477L13.9517 22.0502L15.6174 22.7459L16.7452 22.6723L16.77 23.0521L15.6422 23.1257L15.6413 23.1248Z" fill="#F53C59"/>
<path d="M15.7698 21.0173L14.0022 21.3784L14.1112 20.9649L15.434 20.7315L14.4 19.8734L14.509 19.4599L15.8663 20.6499L16.9588 20.9401L16.8613 21.3083L15.7689 21.0181L15.7698 21.0173Z" fill="#F53C59"/>
<path d="M16.5751 19.0579L14.7863 18.8227L15.0238 18.4669L16.3501 18.6772L15.651 17.5289L15.8885 17.173L16.786 18.7411L17.7251 19.3711L17.5134 19.6879L16.5742 19.0579H16.5751Z" fill="#F53C59"/>
<path d="M17.9661 17.4694L16.3483 16.669L16.6876 16.409L17.8758 17.0364L17.5843 15.723L17.9236 15.463L18.2683 17.2369L18.954 18.1368L18.6519 18.3675L17.9661 17.4677V17.4694Z" fill="#F53C59"/>
<path d="M19.8001 16.4143L18.5296 15.1311L18.9345 14.9963L19.8551 15.9759L20.0048 14.6395L20.4097 14.5046L20.1607 16.2945L20.5178 17.3683L20.1572 17.489L19.8001 16.4152V16.4143Z" fill="#F53C59"/>
<path d="M54.7188 28.9375V16.0625H56.636V27.0919H62.7955V28.9375H54.7188Z" fill="#072234"/>
<path d="M68.0753 28.9375V23.6391L64.2669 16.0625H66.2969L68.9776 21.7759L71.6583 16.0625H73.6883L69.8798 23.6391V28.9375H68.0753Z" fill="#072234"/>
<path d="M78.3088 28.9375V16.0625H80.2261V22.6943H80.2608L85.466 16.0625H87.7389L83.6875 21.1401L88.164 28.9375H85.8911L82.447 22.6413L80.2261 25.0167V28.9375H78.3088Z" fill="#072234"/>
<path d="M93.0535 28.9375V16.0625H94.9707V22.6943H95.0054L100.211 16.0625H102.484L98.4322 21.1401L102.909 28.9375H100.636L97.1916 22.6413L94.9707 25.0167V28.9375H93.0535Z" fill="#072234"/>
<path d="M107.798 28.9375V16.0625H115.875V17.9081H109.715V21.5816H114.973V23.3124H109.715V27.0919H115.875V28.9375H107.798Z" fill="#072234"/>
</svg>
