<svg xmlns="http://www.w3.org/2000/svg" width="22" height="16" viewBox="0 0 22 16">
    <path fill="#CFD2D7" fill-rule="evenodd" d="M11 5c.844.031 1.547.328 2.11.89.562.563.843 1.266.843 2.11 0 .844-.281 1.547-.844 2.11-.562.562-1.265.843-2.109.843-.844 0-1.547-.281-2.11-.844-.562-.562-.843-1.265-.843-2.109 0-.844.281-1.547.844-2.11.562-.562 1.265-.859 2.109-.89zm0 8.016c1.406-.032 2.586-.524 3.54-1.477.952-.953 1.444-2.133 1.476-3.539-.032-1.406-.524-2.586-1.477-3.54-.953-.952-2.133-1.444-3.539-1.476-1.406.032-2.586.524-3.54 1.477C6.509 5.414 6.017 6.594 5.985 8c.032 1.406.524 2.586 1.477 3.54.953.952 2.133 1.444 3.539 1.476zM11 .5c2.531.031 4.773.734 6.727 2.11A12.017 12.017 0 0 1 22.016 8a12.017 12.017 0 0 1-4.29 5.39C15.774 14.767 13.532 15.47 11 15.5c-2.531-.031-4.773-.734-6.727-2.11A12.017 12.017 0 0 1-.016 8a12.017 12.017 0 0 1 4.29-5.39C6.226 1.233 8.468.53 11 .5z"/>
</svg>
