<?xml version="1.0" encoding="UTF-8" standalone="no"?>
<svg width="168px" height="50px" viewBox="0 0 168 50" version="1.1" xmlns="http://www.w3.org/2000/svg" xmlns:xlink="http://www.w3.org/1999/xlink">
    <!-- Generator: Sketch 42 (36781) - http://www.bohemiancoding.com/sketch -->
    <title>google-play</title>
    <desc>Created with Sketch.</desc>
    <defs>
        <linearGradient x1="91.5361538%" y1="4.8388%" x2="-37.5592308%" y2="71.9684%" id="linearGradient-1">
            <stop stop-color="#00A0FF" offset="0%"></stop>
            <stop stop-color="#00A1FF" offset="0.657445%"></stop>
            <stop stop-color="#00BEFF" offset="26.01%"></stop>
            <stop stop-color="#00D2FF" offset="51.22%"></stop>
            <stop stop-color="#00DFFF" offset="76.04%"></stop>
            <stop stop-color="#00E3FF" offset="100%"></stop>
        </linearGradient>
        <linearGradient x1="107.728079%" y1="49.4282353%" x2="-130.665025%" y2="49.4282353%" id="linearGradient-2">
            <stop stop-color="#FFE000" offset="0%"></stop>
            <stop stop-color="#FFBD00" offset="40.87%"></stop>
            <stop stop-color="#FFA500" offset="77.54%"></stop>
            <stop stop-color="#FF9C00" offset="100%"></stop>
        </linearGradient>
        <linearGradient x1="86.3892216%" y1="17.8150459%" x2="-49.888024%" y2="194.392791%" id="linearGradient-3">
            <stop stop-color="#FF3A44" offset="0%"></stop>
            <stop stop-color="#C31162" offset="100%"></stop>
        </linearGradient>
        <linearGradient x1="-18.5790419%" y1="-54.5266535%" x2="42.2748503%" y2="24.6901019%" id="linearGradient-4">
            <stop stop-color="#32A071" offset="0%"></stop>
            <stop stop-color="#2DA771" offset="6.85%"></stop>
            <stop stop-color="#15CF74" offset="47.62%"></stop>
            <stop stop-color="#06E775" offset="80.09%"></stop>
            <stop stop-color="#00F076" offset="100%"></stop>
        </linearGradient>
    </defs>
    <g id="01_issuer_portal" stroke="none" stroke-width="1" fill="none" fill-rule="evenodd">
        <g id="01a_issuer_portal/04b_new-asset_step_2_generated" transform="translate(-764.000000, -628.000000)">
            <g id="Group-9" transform="translate(576.000000, 628.000000)">
                <g id="google-play" transform="translate(188.000000, 0.000000)">
                    <g id="Group">
                        <path d="M6.21105398,49.1949911 C2.73286375,49.1949911 0,46.4892665 0,43.0456172 L0,6.14937388 C0,2.70572451 2.73286375,0 6.21105398,0 L161.487403,0 C164.965594,0 167.698457,2.70572451 167.698457,6.14937388 L167.698457,43.0456172 C167.698457,46.3662791 164.965594,49.1949911 161.487403,49.1949911 L6.21105398,49.1949911 Z" id="Shape" fill="#40474F"></path>
                        <g transform="translate(50.930643, 8.199165)" id="Shape" stroke="#FFFFFF" stroke-width="0.2" fill="#FFFFFF">
                            <path d="M7.95014909,4.34555754 C7.95014909,5.32945736 7.70170693,6.19036971 7.08060154,6.8053071 C6.33527506,7.54323196 5.4657275,7.91219439 4.34773779,7.91219439 C3.22974807,7.91219439 2.36020051,7.54323196 1.61487403,6.8053071 C0.869547557,6.06738223 0.496884318,5.20646989 0.496884318,4.09958259 C0.496884318,2.99269529 0.869547557,2.13178295 1.61487403,1.39385808 C2.36020051,0.655933214 3.22974807,0.286970781 4.34773779,0.286970781 C4.8446221,0.286970781 5.34150642,0.409958259 5.83839074,0.655933214 C6.33527506,0.901908169 6.7079383,1.14788312 6.95638046,1.51684556 L6.33527506,2.13178295 C5.83839074,1.51684556 5.21728534,1.2708706 4.34773779,1.2708706 C3.60241131,1.2708706 2.85708483,1.51684556 2.36020051,2.13178295 C1.73909511,2.62373286 1.49065296,3.36165772 1.49065296,4.22257007 C1.49065296,5.08348241 1.73909511,5.82140727 2.36020051,6.31335719 C2.98130591,6.8053071 3.60241131,7.17426953 4.34773779,7.17426953 C5.21728534,7.17426953 5.83839074,6.92829457 6.45949614,6.31335719 C6.83215938,5.94439475 7.08060154,5.45244484 7.08060154,4.83750745 L4.34773779,4.83750745 L4.34773779,3.97659511 L7.95014909,3.97659511 C7.95014909,3.97659511 7.95014909,4.22257007 7.95014909,4.34555754 L7.95014909,4.34555754 Z"></path>
                            <polygon points="13.6643188 1.2708706 10.3103496 1.2708706 10.3103496 3.60763268 13.4158766 3.60763268 13.4158766 4.46854502 10.3103496 4.46854502 10.3103496 6.8053071 13.6643188 6.8053071 13.6643188 7.78920692 9.31658097 7.78920692 9.31658097 0.409958259 13.6643188 0.409958259"></polygon>
                            <polygon points="17.7636144 7.78920692 16.7698457 7.78920692 16.7698457 1.2708706 14.6580874 1.2708706 14.6580874 0.409958259 19.8753727 0.409958259 19.8753727 1.2708706 17.7636144 1.2708706"></polygon>
                            <polygon points="23.477784 7.78920692 23.477784 0.409958259 24.4715527 0.409958259 24.4715527 7.78920692"></polygon>
                            <polygon points="28.6950694 7.78920692 27.7013007 7.78920692 27.7013007 1.2708706 25.5895424 1.2708706 25.5895424 0.409958259 30.6826067 0.409958259 30.6826067 1.2708706 28.5708483 1.2708706 28.5708483 7.78920692"></polygon>
                            <path d="M40.4960719,6.8053071 C39.7507455,7.54323196 38.8811979,7.91219439 37.7632082,7.91219439 C36.6452185,7.91219439 35.7756709,7.54323196 35.0303444,6.8053071 C34.285018,6.06738223 33.9123547,5.20646989 33.9123547,4.09958259 C33.9123547,2.99269529 34.285018,2.13178295 35.0303444,1.39385808 C35.7756709,0.655933214 36.6452185,0.286970781 37.7632082,0.286970781 C38.8811979,0.286970781 39.7507455,0.655933214 40.4960719,1.39385808 C41.2413984,2.13178295 41.6140617,2.99269529 41.6140617,4.09958259 C41.6140617,5.20646989 41.2413984,6.06738223 40.4960719,6.8053071 L40.4960719,6.8053071 Z M35.7756709,6.19036971 C36.2725552,6.68231962 37.0178817,7.05128205 37.7632082,7.05128205 C38.5085347,7.05128205 39.2538612,6.8053071 39.7507455,6.19036971 C40.2476298,5.6984198 40.620293,4.96049493 40.620293,4.09958259 C40.620293,3.23867024 40.3718509,2.50074538 39.7507455,2.00879547 C39.2538612,1.51684556 38.5085347,1.14788312 37.7632082,1.14788312 C37.0178817,1.14788312 36.2725552,1.39385808 35.7756709,2.00879547 C35.2787866,2.50074538 34.9061234,3.23867024 34.9061234,4.09958259 C34.9061234,4.96049493 35.1545655,5.6984198 35.7756709,6.19036971 L35.7756709,6.19036971 Z"></path>
                            <polygon points="42.9804935 7.78920692 42.9804935 0.409958259 44.0984833 0.409958259 47.7008946 6.19036971 47.7008946 6.19036971 47.7008946 4.71451998 47.7008946 0.409958259 48.6946632 0.409958259 48.6946632 7.78920692 47.7008946 7.78920692 43.8500411 1.76282051 43.8500411 1.76282051 43.8500411 3.23867024 43.8500411 7.78920692"></polygon>
                        </g>
                        <path d="M84.5945552,26.8112701 C81.6132493,26.8112701 79.2530488,29.0250447 79.2530488,32.0997317 C79.2530488,35.0514311 81.6132493,37.3881932 84.5945552,37.3881932 C87.5758611,37.3881932 89.9360616,35.1744186 89.9360616,32.0997317 C89.9360616,28.9020572 87.5758611,26.8112701 84.5945552,26.8112701 L84.5945552,26.8112701 Z M84.5945552,35.1744186 C82.9796812,35.1744186 81.6132493,33.8215564 81.6132493,31.9767442 C81.6132493,30.131932 82.9796812,28.7790698 84.5945552,28.7790698 C86.2094292,28.7790698 87.5758611,30.0089445 87.5758611,31.9767442 C87.5758611,33.8215564 86.2094292,35.1744186 84.5945552,35.1744186 L84.5945552,35.1744186 Z M73.0419948,26.8112701 C70.0606889,26.8112701 67.7004884,29.0250447 67.7004884,32.0997317 C67.7004884,35.0514311 70.0606889,37.3881932 73.0419948,37.3881932 C76.0233007,37.3881932 78.3835012,35.1744186 78.3835012,32.0997317 C78.3835012,28.9020572 76.0233007,26.8112701 73.0419948,26.8112701 L73.0419948,26.8112701 Z M73.0419948,35.1744186 C71.4271208,35.1744186 70.0606889,33.8215564 70.0606889,31.9767442 C70.0606889,30.131932 71.4271208,28.7790698 73.0419948,28.7790698 C74.6568688,28.7790698 76.0233007,30.0089445 76.0233007,31.9767442 C76.0233007,33.8215564 74.6568688,35.1744186 73.0419948,35.1744186 L73.0419948,35.1744186 Z M59.253455,28.4101073 L59.253455,30.6238819 L64.5949614,30.6238819 C64.4707403,31.8537567 63.973856,32.8376565 63.3527506,33.4525939 C62.6074241,34.1905188 61.3652133,35.0514311 59.253455,35.0514311 C55.8994858,35.0514311 53.4150642,32.4686941 53.4150642,29.1480322 C53.4150642,25.8273703 56.0237069,23.2446333 59.253455,23.2446333 C60.9925501,23.2446333 62.358982,23.9825581 63.3527506,24.8434705 L64.9676246,23.2446333 C63.6011928,22.0147585 61.8620976,21.0308587 59.377676,21.0308587 C54.9057172,21.0308587 51.0548637,24.720483 51.0548637,29.1480322 C51.0548637,33.5755814 54.9057172,37.2652057 59.377676,37.2652057 C61.8620976,37.2652057 63.6011928,36.5272809 65.0918457,34.9284436 C66.5824987,33.4525939 67.079383,31.3618068 67.079383,29.7629696 C67.079383,29.2710197 67.079383,28.7790698 66.9551619,28.4101073 L59.253455,28.4101073 L59.253455,28.4101073 Z M115.649825,30.131932 C115.152941,28.9020572 113.91073,26.8112701 111.177866,26.8112701 C108.445002,26.8112701 106.209023,28.9020572 106.209023,32.0997317 C106.209023,35.0514311 108.445002,37.3881932 111.426308,37.3881932 C113.786509,37.3881932 115.277162,35.9123435 115.774046,35.0514311 L114.034951,33.8215564 C113.413846,34.6824687 112.668519,35.2974061 111.426308,35.2974061 C110.184098,35.2974061 109.438771,34.8054562 108.817666,33.6985689 L115.898267,30.7468694 L115.649825,30.131932 L115.649825,30.131932 Z M108.445002,31.8537567 C108.445002,29.8859571 110.059877,28.7790698 111.177866,28.7790698 C112.047414,28.7790698 112.916961,29.2710197 113.165404,29.8859571 L108.445002,31.8537567 L108.445002,31.8537567 Z M102.606612,36.8962433 L104.966812,36.8962433 L104.966812,21.5228086 L102.606612,21.5228086 L102.606612,36.8962433 L102.606612,36.8962433 Z M98.8799794,27.9181574 L98.8799794,27.9181574 C98.258874,27.30322 97.2651053,26.6882826 96.0228945,26.6882826 C93.4142519,26.6882826 90.9298303,29.0250447 90.9298303,31.9767442 C90.9298303,34.9284436 93.2900308,37.1422182 96.0228945,37.1422182 C97.2651053,37.1422182 98.258874,36.5272809 98.7557583,35.9123435 L98.8799794,35.9123435 L98.8799794,36.6502683 C98.8799794,38.618068 97.7619896,39.7249553 96.0228945,39.7249553 C94.6564626,39.7249553 93.662694,38.7410555 93.4142519,37.8801431 L91.4267146,38.7410555 C92.04782,40.0939177 93.5384729,41.8157424 96.1471156,41.8157424 C98.8799794,41.8157424 101.115959,40.2169052 101.115959,36.4042934 L101.115959,27.0572451 L98.8799794,27.0572451 L98.8799794,27.9181574 L98.8799794,27.9181574 Z M96.1471156,35.1744186 C94.5322416,35.1744186 93.1658097,33.8215564 93.1658097,31.9767442 C93.1658097,30.131932 94.5322416,28.7790698 96.1471156,28.7790698 C97.7619896,28.7790698 99.0042004,30.131932 99.0042004,31.9767442 C99.0042004,33.8215564 97.7619896,35.1744186 96.1471156,35.1744186 L96.1471156,35.1744186 Z M126.457059,21.5228086 L120.86711,21.5228086 L120.86711,36.8962433 L123.227311,36.8962433 L123.227311,31.1158318 L126.457059,31.1158318 C129.065702,31.1158318 131.550123,29.2710197 131.550123,26.3193202 C131.550123,23.3676208 129.065702,21.5228086 126.457059,21.5228086 L126.457059,21.5228086 Z M126.58128,28.9020572 L123.227311,28.9020572 L123.227311,23.6135957 L126.58128,23.6135957 C128.320375,23.6135957 129.314144,25.0894454 129.314144,26.1963327 C129.189923,27.549195 128.196154,28.9020572 126.58128,28.9020572 L126.58128,28.9020572 Z M140.866704,26.6882826 C139.127609,26.6882826 137.388514,27.4262075 136.767409,29.0250447 L138.879167,29.8859571 C139.376051,29.0250447 140.121378,28.7790698 140.990925,28.7790698 C142.233136,28.7790698 143.351126,29.5169946 143.475347,30.7468694 L143.475347,30.8698569 C143.102684,30.6238819 142.108915,30.2549195 141.115146,30.2549195 C138.879167,30.2549195 136.643188,31.4847943 136.643188,33.6985689 C136.643188,35.789356 138.506504,37.1422182 140.494041,37.1422182 C142.108915,37.1422182 142.854242,36.4042934 143.475347,35.6663685 L143.599568,35.6663685 L143.599568,36.8962433 L145.835547,36.8962433 L145.835547,30.9928444 C145.587105,28.2871199 143.475347,26.6882826 140.866704,26.6882826 L140.866704,26.6882826 Z M140.618262,35.1744186 C139.872936,35.1744186 138.754946,34.8054562 138.754946,33.8215564 C138.754946,32.5916816 140.121378,32.2227191 141.239367,32.2227191 C142.233136,32.2227191 142.73002,32.4686941 143.351126,32.7146691 C143.102684,34.1905188 141.860473,35.1744186 140.618262,35.1744186 L140.618262,35.1744186 Z M153.661475,27.0572451 L151.052833,33.6985689 L150.928612,33.6985689 L148.195748,27.0572451 L145.711326,27.0572451 L149.810622,36.4042934 L147.450421,41.5697674 L149.810622,41.5697674 L156.145897,27.0572451 L153.661475,27.0572451 L153.661475,27.0572451 Z M132.792334,36.8962433 L135.152535,36.8962433 L135.152535,21.5228086 L132.792334,21.5228086 L132.792334,36.8962433 L132.792334,36.8962433 Z" id="Shape" fill="#FFFFFF"></path>
                        <g transform="translate(12.008038, 8.609123)" id="Shape">
                            <path d="M0.910954584,0.614937388 C0.538291345,0.983899821 0.289849186,1.59883721 0.289849186,2.33676208 L0.289849186,29.5169946 C0.289849186,30.2549195 0.538291345,30.8698569 0.910954584,31.2388193 L1.03517566,31.3618068 L16.4385895,16.1113596 L16.4385895,15.9883721 L16.4385895,15.8653846 L0.910954584,0.614937388 L0.910954584,0.614937388 L0.910954584,0.614937388 Z" fill="url(#linearGradient-1)"></path>
                            <path d="M21.5316538,21.2768336 L16.4385895,16.234347 L16.4385895,15.9883721 L16.4385895,15.8653846 L21.5316538,10.822898 L21.6558749,10.9458855 L27.7427078,14.3895349 C29.4818029,15.3734347 29.4818029,16.9722719 27.7427078,17.9561717 L21.5316538,21.2768336 L21.5316538,21.2768336 L21.5316538,21.2768336 Z" fill="url(#linearGradient-2)"></path>
                            <path d="M21.6558749,21.1538462 L16.4385895,15.9883721 L0.910954584,31.3618068 C1.53205998,31.9767442 2.40160754,31.9767442 3.51959726,31.4847943 L21.6558749,21.1538462" fill="url(#linearGradient-3)"></path>
                            <path d="M21.6558749,10.822898 L3.51959726,0.614937388 C2.40160754,5.22915045e-14 1.53205998,0.122987478 0.910954584,0.737924866 L16.4385895,15.9883721 L21.6558749,10.822898 L21.6558749,10.822898 Z" fill="url(#linearGradient-4)"></path>
                            <g transform="translate(0.414070, 20.907871)" fill="#000000">
                                <path d="M21.1175835,0.122987478 L3.10552699,10.2079606 C2.11175835,10.822898 1.2422108,10.6999106 0.621105398,10.2079606 L0.621105398,10.2079606 L0.496884318,10.3309481 L0.496884318,10.3309481 L0.621105398,10.4539356 L0.621105398,10.4539356 C1.2422108,10.9458855 2.11175835,11.068873 3.10552699,10.4539356 L21.1175835,0.122987478 L21.1175835,0.122987478 L21.1175835,0.122987478 Z" opacity="0.2"></path>
                                <path d="M0.496884318,10.2079606 C0.12422108,9.83899821 0,9.22406082 0,8.48613596 L0,8.60912343 C0,9.3470483 0.248442159,9.96198569 0.621105398,10.3309481 L0.621105398,10.2079606 L0.496884318,10.2079606 L0.496884318,10.2079606 Z" opacity="0.12"></path>
                            </g>
                            <path d="M27.7427078,17.5872093 L21.5316538,21.0308587 L21.6558749,21.1538462 L27.7427078,17.7101968 C28.6122553,17.2182469 28.9849186,16.6033095 28.9849186,15.9883721 L28.9849186,15.9883721 C28.9849186,16.6033095 28.4880343,17.0952594 27.7427078,17.5872093 L27.7427078,17.5872093 Z" fill="#000000" opacity="0.12"></path>
                            <path d="M3.51959726,0.737924866 L27.7427078,14.3895349 C28.4880343,14.8814848 28.9849186,15.3734347 28.9849186,15.9883721 L28.9849186,15.9883721 C28.9849186,15.3734347 28.6122553,14.7584973 27.7427078,14.2665474 L3.51959726,0.614937388 C1.78050214,-0.368962433 0.414070265,0.491949911 0.414070265,2.45974955 L0.414070265,2.58273703 C0.414070265,0.614937388 1.78050214,-0.245974955 3.51959726,0.737924866 L3.51959726,0.737924866 Z" fill="#FFFFFF" opacity="0.25"></path>
                        </g>
                    </g>
                </g>
            </g>
        </g>
    </g>
</svg>